<svg xmlns="http://www.w3.org/2000/svg">

	<symbol id="github" fill="currentColor" viewBox="0 0 32 31.21">
		<path d="M16 0a16 16 0 0 0-5.06 31.18c.8.15 1.09-.34 1.09-.77v-2.72c-4.45 1-5.39-2.14-5.39-2.14a4.25 4.25 0 0 0-1.79-2.35c-1.46-1 .11-1 .11-1a3.39 3.39 0 0 1 2.45 1.65 3.39 3.39 0 0 0 4.65 1.33 3.44 3.44 0 0 1 1-2.14c-3.55-.4-7.29-1.78-7.29-7.91a6.21 6.21 0 0 1 1.65-4.29 5.67 5.67 0 0 1 .18-4.2s1.34-.43 4.4 1.64a15.12 15.12 0 0 1 8 0c3-2.07 4.39-1.64 4.39-1.64a5.72 5.72 0 0 1 .16 4.23 6.16 6.16 0 0 1 1.65 4.29c0 6.15-3.74 7.5-7.31 7.9A3.79 3.79 0 0 1 20 26v4.39c0 .52.29.93 1.1.77A16 16 0 0 0 16 0z" fill-rule="evenodd"/>
	</symbol>

	<symbol id="npm" fill="currentColor" viewBox="0 0 32 32">
		<path d="M1.5,1.5v29h29V1.5ZM25.64,25.64H20.78V11.22H15.91V25.64H6.36V6.36H25.64Z"/>
	</symbol>

	<symbol id="external-link" fill="currentColor" viewBox="0 0 16 16" >
		<path d="M8.636 3.5a.5.5 0 0 0-.5-.5H1.5A1.5 1.5 0 0 0 0 4.5v10A1.5 1.5 0 0 0 1.5 16h10a1.5 1.5 0 0 0 1.5-1.5V7.864a.5.5 0 0 0-1 0V14.5a.5.5 0 0 1-.5.5h-10a.5.5 0 0 1-.5-.5v-10a.5.5 0 0 1 .5-.5h6.636a.5.5 0 0 0 .5-.5z" fill-rule="evenodd"/>
		<path d="M16 .5a.5.5 0 0 0-.5-.5h-5a.5.5 0 0 0 0 1h3.793L6.146 9.146a.5.5 0 1 0 .708.708L15 1.707V5.5a.5.5 0 0 0 1 0v-5z" fill-rule="evenodd"/>
	</symbol>

</svg>